<?xml version="1.0" encoding="utf-8"?>
<!-- Generator: Adobe Illustrator 19.0.0, SVG Export Plug-In . SVG Version: 6.00 Build 0)  -->
<svg version="1.1" id="Capa_1" xmlns="http://www.w3.org/2000/svg" xmlns:xlink="http://www.w3.org/1999/xlink" x="0px" y="0px"
	 viewBox="0 0 375 375" style="enable-background:new 0 0 375 375;" xml:space="preserve">
<style type="text/css">
	.st0{fill:#FFFFFF;}
</style>
<g>
	<g>
		<defs>
			<rect id="SVGID_1_" y="-1" width="375" height="375.8"/>
		</defs>
		<clipPath id="SVGID_2_">
			<use xlink:href="#SVGID_1_"  style="overflow:visible;"/>
		</clipPath>
	</g>
	<g>
		<defs>
			<rect id="SVGID_3_" y="-1" width="375" height="375"/>
		</defs>
		<clipPath id="SVGID_4_">
			<use xlink:href="#SVGID_3_"  style="overflow:visible;"/>
		</clipPath>
	</g>
	<g>
		<g>
			<path class="st0" d="M195.7,7.3c57.6,0,115.2,0,172.8,0c0,120.4,0,240.8,0,361.2c-120.4,0-240.8,0-361.2,0
				c0-57.6,0-115.2,0-172.8c0.1,0.3,0.2,0.7,0.2,1c0.7,6.5,1.1,13.1,2.1,19.5c3,19.4,9.1,37.9,18.4,55.2
				c17.9,33.6,43.7,59.3,77.5,76.7c34.2,17.6,70.6,23.4,108.6,17.9c19.6-2.8,38.3-8.8,55.8-17.9c34.8-18.1,61.2-44.7,79-79.7
				c10.8-21.3,16.9-43.9,18.6-67.7c1.2-16.6,0.2-33.1-3.2-49.4c-7.7-36.8-25.2-68.2-52.3-94.2c-19.9-19.1-43.1-32.8-69.3-41.3
				c-13.7-4.4-27.8-7.2-42.2-8.1C198.9,7.6,197.3,7.4,195.7,7.3z"/>
			<path d="M195.7,7.3c1.6,0.1,3.2,0.3,4.9,0.4c14.4,1,28.5,3.7,42.2,8.1c26.3,8.5,49.4,22.2,69.3,41.3c27.1,26,44.6,57.4,52.3,94.2
				c3.4,16.3,4.4,32.8,3.2,49.4c-1.7,23.8-7.8,46.4-18.6,67.7c-17.8,35-44.2,61.6-79,79.7c-17.6,9.1-36.2,15.1-55.8,17.9
				c-38.1,5.4-74.4-0.3-108.6-17.9c-33.8-17.4-59.6-43.1-77.5-76.7c-9.2-17.4-15.4-35.8-18.4-55.2c-1-6.5-1.4-13-2.1-19.5
				c0-0.3-0.1-0.7-0.2-1c0-5.4,0-10.7,0-16.1c0.1-0.3,0.2-0.5,0.2-0.8c0.2-3.2,0.4-6.4,0.7-9.6c1.4-14.1,4.4-27.7,9.1-41.1
				c9.6-27.4,25-51.1,46-71.1C77.4,43.6,93.3,32.6,111,24.3c20.3-9.5,41.6-15.1,64-16.6c1.5-0.1,3.1-0.3,4.6-0.4
				C184.9,7.3,190.3,7.3,195.7,7.3z M187.5,357.9c92.9,0.1,168.9-74.8,170.4-167.5C359.4,95.5,283,18.2,189.3,17.4
				C94.7,16.5,18.1,92.8,17.4,186.3C16.6,281.5,94,358,187.5,357.9z"/>
			<path class="st0" d="M179.6,7.3c-1.5,0.1-3.1,0.3-4.6,0.4c-22.4,1.5-43.7,7.1-64,16.6c-17.7,8.3-33.6,19.2-47.7,32.8
				c-21,20-36.3,43.7-46,71.1c-4.7,13.3-7.7,27-9.1,41.1c-0.3,3.2-0.5,6.4-0.7,9.6c0,0.3-0.1,0.5-0.2,0.8c0-57.4,0-114.9,0-172.3
				C64.7,7.3,122.1,7.3,179.6,7.3z"/>
			<path class="st0" d="M187.5,357.9C94,358,16.6,281.5,17.4,186.3C18.1,92.8,94.7,16.5,189.3,17.4c93.8,0.9,170.1,78.1,168.6,173.1
				C356.4,283.1,280.4,358,187.5,357.9z M187.6,339.8c83.7,0,152.2-68.1,152.1-152.2c0-84.1-67.9-150.9-149.8-152.1
				c-84.7-1.2-153.4,66.9-154.5,150C34.4,270.1,102.8,339.7,187.6,339.8z"/>
			<path d="M187.6,339.8c-84.9-0.1-153.2-69.7-152.1-154.2c1.1-83.2,69.8-151.3,154.5-150c81.9,1.2,149.7,68,149.8,152.1
				C339.8,271.7,271.3,339.7,187.6,339.8z M182.5,329.5c0-94.6,0-189.1,0-283.7c-15,0.5-29.4,3.3-43.4,8.4
				c-25.3,9.3-46.3,24.6-63.1,45.7c-33.6,42.4-40,100.5-16.3,149.4C82.8,296.8,130.2,327.7,182.5,329.5z M192.8,192.8
				c-0.1,0.2-0.1,0.2-0.1,0.3c0,10,0,19.9,0,29.9c0,0.3,0.4,0.8,0.7,0.8c5.1,1.2,9.1,4.1,12.5,8c2.5,2.9,4.8,6.1,7.4,8.9
				c4.8,5.3,11.6,5.5,16.8,0.7c1.3-1.2,2.5-2.7,3.7-4.1c2.2-2.6,4.3-5.4,6.7-7.8c6.2-6.3,15.5-8,23.5-4.6c4.4,1.9,7.6,5.2,10.6,8.8
				c2.1,2.6,4.2,5.3,6.5,7.7c4.6,4.8,11.6,4.7,16.3,0c1.7-1.8,3.2-3.8,4.9-5.6c2.4-2.7,4.6-5.5,7.4-7.8c4.4-3.7,9.6-5.2,15.5-4.4
				c2.6-10,4.1-20.3,4.5-30.8C283.9,192.8,238.4,192.8,192.8,192.8z M192.8,267.9c6.8,1.3,11.3,5.7,15.3,10.8
				c1.7,2.1,3.3,4.2,5.1,6.2c1.7,1.9,3.7,3.3,6.2,3.9c4.7,1,8.6-0.5,11.7-4.1c2.6-3.1,5.1-6.3,7.7-9.3c9.1-10.6,24.1-10.2,32.6-0.9
				c2.4,2.6,4.5,5.4,6.8,8.1c1.8,2.2,3.7,4.4,6.3,5.6c2.3,1.1,2.4,1,4.1-0.7c0.3-0.3,0.5-0.6,0.8-0.9c13.2-13.6,23.3-29.2,30.3-46.8
				c0.8-2,1.5-4,2.2-6c-0.1-0.1-0.2-0.2-0.3-0.4c-1.4,0.5-2.9,0.6-4.1,1.4c-1.9,1.3-3.7,2.9-5.3,4.6c-2.3,2.5-4.2,5.3-6.4,7.8
				c-6.2,6.9-13.8,9.4-22.8,7c-5-1.3-8.8-4.7-12-8.6c-2.2-2.6-4.3-5.4-6.5-8c-3.2-3.7-7.3-5-12-3.8c-2.8,0.7-4.9,2.6-6.7,4.8
				c-2.6,3.1-5,6.3-7.8,9.3c-5.4,5.8-12.2,8-20,6.7c-5.6-0.9-9.9-4.2-13.5-8.4c-2.6-3.1-5.2-6.3-7.9-9.3c-1-1.1-2.4-1.9-3.9-3
				C192.8,245.5,192.8,256.6,192.8,267.9z M278.7,296.5c-4.9-2.9-8-7.1-11.3-11.2c-1-1.3-2-2.5-3.1-3.7c-3.2-3.5-7.1-4.7-11.7-3.6
				c-2.9,0.7-4.9,2.6-6.7,4.8c-2.6,3-5,6.3-7.7,9.2c-5.8,6.2-12.9,8.4-21.2,6.7c-5.1-1.1-9.1-4.2-12.4-8.1c-2.2-2.6-4.3-5.4-6.5-8
				c-1.4-1.7-3-3.2-5.2-4c0,17.1,0,34,0,51.1C225.1,328.1,253.6,317.1,278.7,296.5z M194,182.6c0.7,0,1.2,0,1.6,0
				c5.1,0,10.2,0,15.4,0c0.9,0,1.6-0.3,2.2-0.9c27.7-27.8,55.5-55.5,83.2-83.2c0.3-0.3,0.6-0.6,1-1c-2.9-3.2-5.8-6.4-8.6-9.5
				C257.2,119.5,225.7,150.9,194,182.6z M192.8,169.1c29.4-29.4,58.8-58.8,88.3-88.3c-3.3-2.6-6.6-5.3-10.2-8.2
				c-0.5,0.6-0.8,1.1-1.2,1.5c-21.3,21.3-42.5,42.5-63.8,63.8c-4.2,4.2-8.3,8.3-12.5,12.5c-0.4,0.4-0.7,0.9-0.7,1.4
				c0,5.6,0,11.3,0,16.9C192.7,168.8,192.8,169,192.8,169.1z M303.7,105.9c-25.6,25.6-51.1,51.1-76.7,76.7c0.3,0,0.8,0,1.2,0
				c5.1,0,10.2,0,15.2,0c1,0,1.8-0.3,2.5-1c21.2-21.3,42.5-42.5,63.8-63.8c0.3-0.3,0.8-0.4,1.2-0.7C308.3,113,306,109.4,303.7,105.9
				z M262.5,66.9c-3.6-2-7.1-3.9-10.6-5.9c-0.9-0.5-1.4-0.3-2.1,0.4c-18.5,18.5-37,37-55.5,55.5c-0.3,0.3-0.7,0.7-1,1.1
				c-0.3,0.4-0.5,0.9-0.5,1.4c0,5.5,0,11,0,16.4c0,0.2,0.1,0.5,0.1,0.8C216,113.3,239.1,90.2,262.5,66.9z M259.6,182.6
				c0.5,0,0.9,0,1.2,0c5.2,0,10.4,0,15.6,0c0.8,0,1.4-0.2,2-0.8c4.4-4.4,8.8-8.8,13.2-13.2c9.4-9.4,18.8-18.8,28.2-28.1
				c1-1,1.2-1.8,0.6-3.1c-1.1-2.4-2.1-4.9-3.1-7.4c-0.5-1.2-1.1-2.4-1.6-3.5C297,145.1,278.4,163.8,259.6,182.6z M192.7,103.7
				c16-16,31.9-31.9,47.8-47.8c0,0-0.1-0.1-0.2-0.1c-4.1-1.4-8.3-2.9-12.4-4.3c-0.4-0.1-1,0.1-1.3,0.4
				c-11.1,11.1-22.2,22.1-33.3,33.2c-0.3,0.3-0.6,0.7-0.6,1.1C192.7,92.1,192.7,97.9,192.7,103.7z M324.8,150.1
				c-10.9,10.9-21.6,21.6-32.4,32.4c0.1,0,0.2,0.1,0.4,0.1c5.6,0,11.2,0,16.8,0c0.4,0,0.9-0.3,1.2-0.6c5.5-5.4,10.9-10.9,16.4-16.4
				c0.3-0.3,0.5-0.8,0.4-1.1C326.7,159.7,325.8,155,324.8,150.1z M192.7,70.9c7.5-7.5,15-15,22.7-22.7c-5.2-0.7-10.4-1.3-15.6-2
				c-0.3,0-0.8,0.2-1.1,0.5c-1.8,1.7-3.6,3.4-5.3,5.2c-0.4,0.4-0.7,1.1-0.7,1.6c-0.1,4.3,0,8.6,0,12.8
				C192.7,68,192.7,69.5,192.7,70.9z M329.5,182.5c-0.1-1.5-0.2-2.9-0.2-4c-1.4,1.4-2.7,2.7-4,4
				C326.5,182.5,327.9,182.5,329.5,182.5z"/>
			<path class="st0" d="M182.5,329.5c-52.3-1.8-99.7-32.7-122.8-80.2c-23.7-48.9-17.2-107,16.3-149.4c16.7-21.1,37.8-36.4,63.1-45.7
				c14-5.1,28.4-7.9,43.4-8.4C182.5,140.4,182.5,234.9,182.5,329.5z M118,132.3c-0.7,0.1-1.3,0.2-1.8,0.3c-8,1.3-15,4.6-20.3,10.8
				C86,155,83.8,168,89.4,182.3c3.5,8.8,8.8,16.5,14.6,23.9c7,8.9,14.8,17,22.5,25.3c5,5.3,9.8,10.7,13.8,16.9
				c6.3,9.7,8.7,20.2,6.3,31.6c-1.6,7.6-6,11.6-13.4,12.4c-6.2,0.6-12.1-3.2-13.6-8.9c-0.8-3.4-0.7-6.7,1.6-9.6
				c1.4-1.8,4-2.5,6.2-1.8c2.1,0.7,2.7,2.4,2.8,4.4c0,0.1,0,0.2,0,0.4c0.3,2.6,2.5,4.5,5.1,4.5c2.7-0.1,4.9-2.1,4.9-4.8
				c0.1-4.4-1.4-8.3-4.7-11.3c-6-5.4-16.2-4.6-21.7,1.4c-5.8,6.5-6.6,17.7-1.4,25.4c5.7,8.5,14,11.4,23.9,10
				c9.9-1.4,16.1-7.5,19.1-16.7c3.8-11.7,2.7-23.3-2.3-34.5c-3.5-8-8.8-14.7-14.6-21.1c-6.8-7.5-13.8-14.9-20.5-22.5
				c-6.5-7.3-12.5-15.1-17.1-23.8c-3.1-6-5.4-12.1-4.3-19.1c1.6-9.9,6.8-17.1,16.4-20.6c1.5-0.6,3.1-0.8,4.8-1.3c0,1.5,0,2.7,0,3.9
				c0,2.9,2.1,5.1,4.9,5.1c2.9,0,5.1-2.1,5.1-5c0-6.2,0-12.4,0-18.6c0-2.9-2.3-5.1-5.2-5c-2.8,0.1-4.9,2.2-4.9,5.1
				C118,129.3,118,130.7,118,132.3z M152.4,104.8c0.4,0.5,0.7,0.9,1,1.3c1.1,1.6,2.2,3.1,3.2,4.8c5.2,8.8,7,18.3,6.5,28.4
				c-0.8,15.9-5.1,30.8-12.6,44.7c-4.9,9-10.7,17.2-18,24.4c-2.1,2.1-2.1,5.4,0.1,7.4c2.1,2,5.1,1.7,7.5-0.6
				c9.4-9.3,16.7-20.1,22.3-32c5.8-12.2,9.3-25,10.5-38.4c0.5-5.7,0.7-11.3,0-17c-1.8-13.6-7.6-25.3-17.5-34.8
				c-11-10.5-24.2-15.8-39.4-16.1c-3.8-0.1-5.8,2-5.8,5.7c0,3.5,0.1,7,0,10.6c-0.1,1.8-0.2,3.7-0.7,5.5c-2.8,11.6-12.8,19.5-25,19.8
				c-3.1,0.1-5.1,2.1-5.1,5.2c0,3.8,0,7.5,0,11.3c0,2.9,2.2,5.1,5,5.1c2.8,0,5-2.2,5-5.2c0-1.9,0-3.8,0-5.6c0-0.8,0.2-1,1-1.2
				c13-2.6,22.1-10,27.3-22.2c2.2-5.2,2.7-10.6,2.5-16.2c0-0.7,0-1.5,0-2.4c9.4,1.1,17.7,4.6,25,10.4c-0.4,0.4-0.7,0.7-1,1.1
				c-2.7,2.7-5.5,5.5-8.2,8.2c-2.2,2.2-2,5.6,0.4,7.5c2,1.7,4.9,1.5,7-0.5C146.3,110.9,149.3,107.9,152.4,104.8z"/>
			<path class="st0" d="M192.8,192.8c45.6,0,91.1,0,136.7,0c-0.4,10.5-1.9,20.8-4.5,30.8c-5.9-0.9-11.1,0.6-15.5,4.4
				c-2.7,2.3-5,5.2-7.4,7.8c-1.7,1.8-3.1,3.9-4.9,5.6c-4.7,4.7-11.6,4.7-16.3,0c-2.3-2.4-4.4-5.1-6.5-7.7c-3-3.6-6.2-6.9-10.6-8.8
				c-8-3.4-17.3-1.6-23.5,4.6c-2.4,2.4-4.5,5.2-6.7,7.8c-1.2,1.4-2.3,2.9-3.7,4.1c-5.2,4.8-12,4.6-16.8-0.7c-2.6-2.9-4.9-6-7.4-8.9
				c-3.4-3.9-7.3-6.9-12.5-8c-0.3-0.1-0.7-0.5-0.7-0.8c0-10,0-19.9,0-29.9C192.7,193.1,192.7,193,192.8,192.8z"/>
			<path class="st0" d="M192.8,267.9c0-11.3,0-22.4,0-33.9c1.5,1.1,2.9,1.9,3.9,3c2.7,3,5.2,6.2,7.9,9.3c3.6,4.2,7.9,7.4,13.5,8.4
				c7.8,1.3,14.6-0.9,20-6.7c2.7-3,5.2-6.2,7.8-9.3c1.8-2.2,3.9-4.1,6.7-4.8c4.8-1.2,8.8,0.1,12,3.8c2.3,2.6,4.3,5.3,6.5,8
				c3.3,3.9,7,7.2,12,8.6c9,2.4,16.7-0.1,22.8-7c2.2-2.5,4.2-5.3,6.4-7.8c1.6-1.7,3.4-3.3,5.3-4.6c1.1-0.8,2.7-1,4.1-1.4
				c0.1,0.1,0.2,0.2,0.3,0.4c-0.7,2-1.4,4-2.2,6c-7,17.6-17.1,33.2-30.3,46.8c-0.3,0.3-0.5,0.6-0.8,0.9c-1.7,1.8-1.8,1.8-4.1,0.7
				c-2.7-1.2-4.5-3.4-6.3-5.6c-2.3-2.7-4.4-5.5-6.8-8.1c-8.5-9.3-23.4-9.7-32.6,0.9c-2.6,3.1-5.1,6.3-7.7,9.3
				c-3.1,3.6-7,5.1-11.7,4.1c-2.5-0.5-4.5-2-6.2-3.9c-1.8-2-3.4-4.1-5.1-6.2C204.1,273.6,199.6,269.2,192.8,267.9z"/>
			<path class="st0" d="M278.7,296.5c-25.1,20.6-53.6,31.6-85.9,33c0-17.1,0-34,0-51.1c2.2,0.9,3.8,2.4,5.2,4c2.2,2.6,4.3,5.4,6.5,8
				c3.3,3.9,7.3,7,12.4,8.1c8.3,1.8,15.5-0.4,21.2-6.7c2.7-2.9,5.1-6.2,7.7-9.2c1.8-2.2,3.9-4.1,6.7-4.8c4.6-1.1,8.5,0.2,11.7,3.6
				c1.1,1.2,2.1,2.4,3.1,3.7C270.7,289.4,273.9,293.6,278.7,296.5z"/>
			<path class="st0" d="M194,182.6c31.7-31.7,63.1-63,94.7-94.6c2.8,3.1,5.6,6.2,8.6,9.5c-0.4,0.4-0.7,0.7-1,1
				c-27.7,27.7-55.5,55.5-83.2,83.2c-0.6,0.6-1.3,0.9-2.2,0.9c-5.1,0-10.2,0-15.4,0C195.2,182.6,194.8,182.6,194,182.6z"/>
			<path class="st0" d="M192.8,169.1c0-0.1,0-0.2,0-0.4c0-5.6,0-11.3,0-16.9c0-0.5,0.4-1,0.7-1.4c4.1-4.2,8.3-8.3,12.5-12.5
				c21.3-21.3,42.5-42.5,63.8-63.8c0.4-0.4,0.7-0.9,1.2-1.5c3.6,2.9,6.9,5.5,10.2,8.2C251.6,110.3,222.2,139.6,192.8,169.1z"/>
			<path class="st0" d="M303.7,105.9c2.3,3.5,4.6,7.1,7.2,11.2c-0.4,0.2-0.9,0.4-1.2,0.7c-21.3,21.2-42.5,42.5-63.8,63.8
				c-0.7,0.7-1.5,1-2.5,1c-5.1,0-10.2,0-15.2,0c-0.4,0-0.8,0-1.2,0C252.6,157,278.1,131.5,303.7,105.9z"/>
			<path class="st0" d="M262.5,66.9c-23.3,23.3-46.4,46.4-69.6,69.6c0-0.3-0.1-0.5-0.1-0.8c0-5.5,0-11,0-16.4c0-0.5,0.3-1,0.5-1.4
				c0.2-0.4,0.6-0.7,1-1.1c18.5-18.5,37-37,55.5-55.5c0.7-0.7,1.2-0.9,2.1-0.4C255.3,63,258.9,64.9,262.5,66.9z"/>
			<path class="st0" d="M259.6,182.6c18.8-18.8,37.5-37.5,56.2-56.2c0.5,1.1,1.1,2.3,1.6,3.5c1,2.5,2,5,3.1,7.4
				c0.6,1.3,0.4,2.1-0.6,3.1c-9.4,9.3-18.8,18.7-28.2,28.1c-4.4,4.4-8.8,8.8-13.2,13.2c-0.6,0.6-1.2,0.8-2,0.8c-5.2,0-10.4,0-15.6,0
				C260.4,182.6,260.1,182.6,259.6,182.6z"/>
			<path class="st0" d="M192.7,103.7c0-5.8,0-11.6,0-17.4c0-0.4,0.3-0.8,0.6-1.1c11.1-11.1,22.1-22.2,33.3-33.2
				c0.3-0.3,1-0.5,1.3-0.4c4.2,1.4,8.3,2.8,12.4,4.3c0.1,0,0.2,0.1,0.2,0.1C224.6,71.9,208.7,87.7,192.7,103.7z"/>
			<path class="st0" d="M324.8,150.1c1,4.8,2,9.6,2.9,14.3c0.1,0.3-0.2,0.9-0.4,1.1c-5.4,5.5-10.9,10.9-16.4,16.4
				c-0.3,0.3-0.8,0.6-1.2,0.6c-5.6,0-11.2,0-16.8,0c-0.2,0-0.4-0.1-0.4-0.1C303.1,171.8,313.9,161.1,324.8,150.1z"/>
			<path class="st0" d="M192.7,70.9c0-1.4,0-2.9,0-4.5c0-4.3,0-8.6,0-12.8c0-0.6,0.3-1.2,0.7-1.6c1.7-1.8,3.5-3.5,5.3-5.2
				c0.3-0.3,0.8-0.6,1.1-0.5c5.2,0.6,10.4,1.3,15.6,2C207.8,55.8,200.3,63.4,192.7,70.9z"/>
			<path class="st0" d="M329.5,182.5c-1.6,0-3,0-4.3,0c1.3-1.3,2.7-2.7,4-4C329.4,179.6,329.4,181,329.5,182.5z"/>
			<path d="M118,132.3c0-1.5,0-2.9,0-4.3c0-2.9,2.1-5.1,4.9-5.1c2.8-0.1,5.1,2.1,5.2,5c0,6.2,0,12.4,0,18.6c0,2.9-2.3,5.1-5.1,5
				c-2.8,0-4.9-2.2-4.9-5.1c0-1.2,0-2.4,0-3.9c-1.7,0.5-3.3,0.7-4.8,1.3c-9.6,3.6-14.8,10.7-16.4,20.6c-1.1,6.9,1.2,13.1,4.3,19.1
				c4.6,8.8,10.6,16.5,17.1,23.8c6.8,7.6,13.7,15,20.5,22.5c5.8,6.4,11.1,13.2,14.6,21.1c4.9,11.2,6.1,22.7,2.3,34.5
				c-3,9.3-9.3,15.3-19.1,16.7c-9.9,1.4-18.2-1.5-23.9-10c-5.1-7.7-4.4-18.9,1.4-25.4c5.4-6.1,15.7-6.8,21.7-1.4
				c3.3,3,4.8,6.9,4.7,11.3c-0.1,2.7-2.3,4.7-4.9,4.8c-2.6,0.1-4.8-1.9-5.1-4.5c0-0.1,0-0.2,0-0.4c0-2-0.6-3.7-2.8-4.4
				c-2.2-0.7-4.8,0-6.2,1.8c-2.3,2.9-2.4,6.2-1.6,9.6c1.4,5.7,7.3,9.5,13.6,8.9c7.4-0.8,11.8-4.7,13.4-12.4
				c2.4-11.4-0.1-21.9-6.3-31.6c-4-6.1-8.8-11.6-13.8-16.9c-7.7-8.2-15.5-16.4-22.5-25.3c-5.8-7.4-11.2-15.1-14.6-23.9
				C83.8,168,86,155,95.9,143.3c5.3-6.2,12.3-9.5,20.3-10.8C116.8,132.5,117.3,132.4,118,132.3z"/>
			<path d="M152.4,104.8c-3.1,3.1-6.1,6.1-9.1,9.1c-2,2-4.9,2.2-7,0.5c-2.4-2-2.5-5.3-0.4-7.5c2.7-2.8,5.5-5.5,8.2-8.2
				c0.3-0.3,0.6-0.6,1-1.1c-7.3-5.9-15.6-9.3-25-10.4c0,0.9,0,1.6,0,2.4c0.2,5.6-0.3,11-2.5,16.2c-5.2,12.2-14.3,19.6-27.3,22.2
				c-0.8,0.2-1.1,0.4-1,1.2c0.1,1.9,0,3.8,0,5.6c0,2.9-2.2,5.1-5,5.2c-2.9,0-5-2.2-5-5.1c0-3.8,0-7.5,0-11.3c0-3.1,2-5.1,5.1-5.2
				c12.3-0.3,22.2-8.2,25-19.8c0.4-1.8,0.6-3.6,0.7-5.5c0.1-3.5,0-7,0-10.6c0-3.8,2-5.8,5.8-5.7c15.2,0.3,28.4,5.6,39.4,16.1
				c10,9.5,15.8,21.2,17.5,34.8c0.7,5.7,0.5,11.3,0,17c-1.2,13.4-4.7,26.2-10.5,38.4c-5.7,11.9-12.9,22.7-22.3,32
				c-2.4,2.3-5.4,2.6-7.5,0.6c-2.2-2-2.2-5.2-0.1-7.4c7.3-7.2,13.2-15.4,18-24.4c7.5-14,11.8-28.8,12.6-44.7
				c0.5-10.1-1.3-19.6-6.5-28.4c-1-1.6-2.1-3.2-3.2-4.8C153.1,105.7,152.8,105.3,152.4,104.8z"/>
		</g>
	</g>
</g>
</svg>
